<svg xmlns="http://www.w3.org/2000/svg" viewBox="0 0 64 64" fill="none">
  <defs>
    <linearGradient id="grad1" x1="0%" y1="0%" x2="100%" y2="100%">
      <stop offset="0%" style="stop-color:#00d9ff;stop-opacity:1" />
      <stop offset="100%" style="stop-color:#7b2ff7;stop-opacity:1" />
    </linearGradient>
    <linearGradient id="grad2" x1="0%" y1="0%" x2="100%" y2="100%">
      <stop offset="0%" style="stop-color:#7b2ff7;stop-opacity:1" />
      <stop offset="100%" style="stop-color:#00d9ff;stop-opacity:1" />
    </linearGradient>
  </defs>
  
  <!-- Background circle with gradient -->
  <circle cx="32" cy="32" r="30" fill="url(#grad1)" opacity="0.2"/>
  
  <!-- Document icon -->
  <path d="M20 12 C20 10 21 9 23 9 L35 9 L44 18 L44 52 C44 54 43 55 41 55 L23 55 C21 55 20 54 20 52 Z" 
        fill="url(#grad1)" stroke="url(#grad2)" stroke-width="2"/>
  
  <!-- Document corner fold -->
  <path d="M35 9 L35 18 L44 18" fill="none" stroke="url(#grad2)" stroke-width="2" stroke-linejoin="round"/>
  
  <!-- Chat bubble -->
  <circle cx="40" cy="42" r="12" fill="#00d9ff" opacity="0.9"/>
  <path d="M40 48 L37 51 L37 48 Z" fill="#00d9ff" opacity="0.9"/>
  
  <!-- AI spark/star in chat bubble -->
  <g transform="translate(40, 42)">
    <path d="M0,-4 L0.5,-1 L3,0 L0.5,1 L0,4 L-0.5,1 L-3,0 L-0.5,-1 Z" 
          fill="white" opacity="0.95"/>
  </g>
  
  <!-- Text lines on document -->
  <line x1="25" y1="25" x2="38" y2="25" stroke="white" stroke-width="2" stroke-linecap="round" opacity="0.7"/>
  <line x1="25" y1="31" x2="35" y2="31" stroke="white" stroke-width="2" stroke-linecap="round" opacity="0.7"/>
  <line x1="25" y1="37" x2="32" y2="37" stroke="white" stroke-width="2" stroke-linecap="round" opacity="0.7"/>
</svg>

